<svg xmlns="http://www.w3.org/2000/svg" xmlns:xlink="http://www.w3.org/1999/xlink" version="1.1" x="0px" y="0px" viewBox="0 0 100 125"
    enable-background="new 0 0 100 100" xml:space="preserve">
    <path d="M78.07,21.326H36.593c-6.217,0-11.348,4.731-11.986,10.782c-3.969,1.667-6.863,5.4-7.332,9.846  c-4.343,1.825-7.4,6.121-7.4,11.118v23.602h4V53.072c0-2.676,1.317-5.045,3.332-6.51v20.266h4V45.054  c0.239-0.021,0.479-0.037,0.724-0.037h2.608v11.965h4V45.018h34.868c4.442,0,8.056,3.613,8.056,8.055v23.602h4V53.072  c0-6.647-5.408-12.055-12.056-12.055H28.539v-5.809c0.239-0.021,0.479-0.037,0.723-0.037h41.477c4.441,0,8.055,3.614,8.055,8.055  v23.601h4V43.227c0-6.647-5.407-12.055-12.055-12.055H29.262c-0.14,0-0.275,0.016-0.413,0.021c0.957-3.38,4.062-5.867,7.745-5.867  H78.07c4.441,0,8.055,3.614,8.055,8.055v23.601h4V33.381C90.125,26.734,84.718,21.326,78.07,21.326z M24.539,41.018H21.93  c-0.14,0-0.275,0.016-0.414,0.021c0.498-1.76,1.579-3.272,3.022-4.322V41.018z"
    />
</svg>